# xmcd
#
# Track frame offsets: 
#        150
#        10307
#        22267
#        32235
#        43628
#        56094
#        65726
#        74324
#        84940
#        95810
#        108288
#        118721
#        127940
#        139374
#        151993
#        164302
#        176465
#        186232
#        197839
#        208844
#        221348
#        232184
#        244002
#        253865
#        266781
#
# Disc length: 3702 seconds
#
# Revision: 0
# Processed by: cddbd v1.5.2PL0 Copyright (c) Steve Scherf et al.
# Submitted via: ExactAudioCopy v1.0b3
#
DISCID=7b0e7419
DTITLE=Various Artist - RCAカントリー&ウエスタン100 Disc 2 BVCM-38039-42
DYEAR=1900
DGENRE=Country
TTITLE0=ヨーカム
TTITLE1=愉快だったね 
TTITLE2=フォギー・マウンテン・トップ
TTITLE3=ハミング・バード 
TTITLE4=エニー・オールド・タイム
TTITLE5=陽気に行こう
TTITLE6=フィドル・ディドル・ブギー 
TTITLE7=想い出のラヴ・レター
TTITLE8=ホワイ・ベイビー・ホワイ
TTITLE9=恋に夢中
TTITLE10=ルッキング・バック・トゥ・シー
TTITLE11=ゴッタ・ギッタ・ゴーイン
TTITLE12=星を見つめないで
TTITLE13=ムーヴィン・オン
TTITLE14=アイ・テイク・ザ・チャンス
TTITLE15=悲しき呼び声
TTITLE16=グッド・ウーマンズ・ラヴ
TTITLE17=クライン・ハート・ブルース
TTITLE18=ペンおじさん 
TTITLE19=偽りの心 
TTITLE20=バラの花束
TTITLE21=青い鳥が鳴いていた
TTITLE22=ゲイシャ・ガール
TTITLE23=愛していると言ったっけ
TTITLE24=呑めや歌えや
EXTD=
EXTT0=
EXTT1=
EXTT2=
EXTT3=
EXTT4=
EXTT5=
EXTT6=
EXTT7=
EXTT8=
EXTT9=
EXTT10=
EXTT11=
EXTT12=
EXTT13=
EXTT14=
EXTT15=
EXTT16=
EXTT17=
EXTT18=
EXTT19=
EXTT20=
EXTT21=
EXTT22=
EXTT23=
EXTT24=
PLAYORDER=
